# xmcd
#
# Track frame offsets: 
#        150
#        14836
#        26131
#        38378
#        47853
#        56469
#        68865
#        78739
#        89515
#        99236
#        112876
#        122513
#        133894
#        149721
#        159934
#        172353
#        184508
#        197059
#        208249
#        220490
#        231572
#        247339
#        259950
#        272400
#
# Disc length: 3769 seconds
#
# Revision: 1
# Processed by: cddbd v1.5.2PL0 Copyright (c) Steve Scherf et al.
# Submitted via: ExactAudioCopy v0.99pb5
#
DISCID=750eb718
DTITLE=Walter Ostanek - Just for You and As Time Goes By
DYEAR=1999
DGENRE=Polka
TTITLE0=Helen's Polka
TTITLE1=Best Wishes Waltz
TTITLE2=Antique Polka
TTITLE3=Rangers Waltz
TTITLE4=Heel and Toe Polka
TTITLE5=707 Polka
TTITLE6=Rolla Coaster Polka
TTITLE7=Moonlight and Roses Polka
TTITLE8=Snow Waltz
TTITLE9=Barbara Polka
TTITLE10=Twilight Polka
TTITLE11=St. Catherines Our Home Town Polka
TTITLE12=Sugar Bush Polka
TTITLE13=Wilkinson's Polka
TTITLE14=Blue Moon Oberek
TTITLE15=Drink and Sing Polka
TTITLE16=Sweet Pete Polka
TTITLE17=Beer Drinking Polka
TTITLE18=We Are St. Catherines Polka
TTITLE19=Accordian Polka
TTITLE20=You Belong To My Heart and Marianne  (Latin)
TTITLE21=Ashes of Love Polka
TTITLE22=My Cheryl's Polka
TTITLE23=Butterfly Polka
EXTD=
EXTT0=
EXTT1=
EXTT2=
EXTT3=
EXTT4=
EXTT5=
EXTT6=
EXTT7=
EXTT8=
EXTT9=
EXTT10=
EXTT11=
EXTT12=
EXTT13=
EXTT14=
EXTT15=
EXTT16=
EXTT17=
EXTT18=
EXTT19=
EXTT20=
EXTT21=
EXTT22=
EXTT23=
PLAYORDER=
